<svg width="164" height="32" viewBox="0 0 164 32" fill="none" xmlns="http://www.w3.org/2000/svg">
<path d="M143.827 8.50352C147.786 8.50352 149.527 10.5151 149.527 13.9094V21.1861H146.023V19.8297C145.138 20.7882 143.924 21.4192 142.158 21.4192C139.75 21.4192 137.771 20.0627 137.771 17.5829V17.5346C137.771 14.7976 139.893 13.5335 142.925 13.5335C143.993 13.5226 145.055 13.6975 146.061 14.0501V13.8303C146.061 12.3551 145.131 11.5373 143.319 11.5373H139.678V8.45955L143.827 8.50352ZM146.093 16.132C145.365 15.8168 144.578 15.6572 143.783 15.6637C142.23 15.6637 141.276 16.2705 141.276 17.3939V17.4422C141.276 18.4007 142.087 18.9613 143.256 18.9613C144.948 18.9613 146.093 18.049 146.093 16.7629V16.132Z" fill="#414141"/>
<path d="M45.0671 21.4194C43.1358 21.4194 41.9438 20.5532 41.0857 19.5463V24.928H37.4629V8.64442H41.0768V10.4449C41.9595 9.27536 43.1739 8.41139 45.0581 8.41139C48.0402 8.41139 50.8833 10.7021 50.8833 14.8923V14.9385C50.8878 19.1264 48.0962 21.4194 45.0671 21.4194ZM47.2627 14.8923C47.2627 12.8104 45.8333 11.4298 44.1261 11.4298C42.4188 11.4298 41.0275 12.8104 41.0275 14.8923V14.9385C41.0275 17.0203 42.4345 18.4009 44.1261 18.4009C45.8176 18.4009 47.2627 17.0445 47.2627 14.9385V14.8923Z" fill="#414141"/>
<path d="M58.1366 8.50352C62.0955 8.50352 63.8363 10.5151 63.8363 13.9094V21.1861H60.3322V19.8297C59.4473 20.7882 58.2329 21.4192 56.4674 21.4192C54.0589 21.4192 52.0806 20.0627 52.0806 17.5829V17.5346C52.0806 14.7976 54.2023 13.5335 57.2337 13.5335C58.3021 13.5226 59.3641 13.6975 60.3703 14.0501V13.8303C60.3703 12.3551 59.4405 11.5373 57.628 11.5373H53.9872V8.45955L58.1366 8.50352ZM60.4017 16.132C59.6743 15.8168 58.8869 15.6572 58.0918 15.6637C56.5391 15.6637 55.5847 16.2705 55.5847 17.3939V17.4422C55.5847 18.4007 56.3957 18.9613 57.5653 18.9613C59.2568 18.9613 60.4017 18.049 60.4017 16.7629V16.132Z" fill="#414141"/>
<path d="M68.8241 25.0004H65.1699L65.6382 22.0436H68.3693C68.9899 22.0436 69.326 21.8589 69.6352 21.2257L64.6255 8.63767H68.4657L71.3783 17.1785L74.1699 8.63767H77.9384L73.025 21.483C72.0482 24.0331 70.9974 25.0004 68.8286 25.0004" fill="#414141"/>
<path d="M79.1413 21.3554C78.8182 21.3519 78.5033 21.2547 78.2364 21.076C77.9694 20.8974 77.7623 20.6452 77.6411 20.3513C77.5199 20.0573 77.49 19.7348 77.5552 19.4242C77.6204 19.1136 77.7778 18.8289 78.0075 18.6059C78.2372 18.3829 78.5291 18.2316 78.8463 18.171C79.1635 18.1104 79.4919 18.1433 79.7901 18.2654C80.0883 18.3875 80.3431 18.5935 80.5222 18.8574C80.7014 19.1213 80.797 19.4313 80.7971 19.7484C80.7929 20.1764 80.6166 20.5854 80.3065 20.8864C79.9963 21.1874 79.5776 21.356 79.1413 21.3554Z" fill="#3866AF"/>
<path d="M134.392 21.3554C134.069 21.3515 133.754 21.2539 133.487 21.075C133.221 20.896 133.014 20.6437 132.893 20.3497C132.772 20.0558 132.742 19.7333 132.808 19.4229C132.873 19.1124 133.031 18.828 133.261 18.6052C133.491 18.3824 133.782 18.2313 134.1 18.1709C134.417 18.1105 134.745 18.1434 135.043 18.2656C135.341 18.3878 135.596 18.5938 135.775 18.8576C135.954 19.1214 136.049 19.4313 136.049 19.7483C136.045 20.1767 135.869 20.5861 135.558 20.8872C135.248 21.1882 134.828 21.3565 134.392 21.3554Z" fill="#3866AF"/>
<path d="M88.9965 21.4655C85.1563 21.4655 82.3423 18.5658 82.3423 14.9846V14.9385C82.3423 11.3573 85.1339 8.41139 89.0458 8.41139C91.4521 8.41139 92.9554 9.20501 94.1474 10.5153L91.9382 12.8566C91.1272 12.0124 90.3161 11.476 89.0256 11.476C87.2131 11.476 85.9248 13.0434 85.9248 14.8923V14.9385C85.9248 16.8577 87.1907 18.4009 89.169 18.4009C90.3856 18.4009 91.2191 17.8865 92.1018 17.0665L94.2235 19.1748C92.9778 20.507 91.5506 21.4655 88.9965 21.4655Z" fill="#414141"/>
<path d="M101.777 21.4655C97.8203 21.4655 94.8853 18.5878 94.8853 14.9846V14.9385C94.8853 11.3353 97.8404 8.41139 101.831 8.41139C105.821 8.41139 108.725 11.2891 108.725 14.8923V14.9385C108.718 18.5416 105.761 21.4655 101.777 21.4655ZM105.138 14.9385C105.138 13.0896 103.778 11.476 101.777 11.476C99.7023 11.476 98.4611 13.0434 98.4611 14.8923V14.9385C98.4611 16.7873 99.821 18.4009 101.822 18.4009C103.896 18.4009 105.138 16.8335 105.138 14.9846V14.9385Z" fill="#414141"/>
<path d="M126.51 21.1863V14.1888C126.51 12.5048 125.746 11.6386 124.389 11.6386C123.031 11.6386 122.193 12.5048 122.193 14.1888V21.1863H118.57V14.1888C118.57 12.5048 117.806 11.6386 116.446 11.6386C115.086 11.6386 114.253 12.5048 114.253 14.1888V21.1863H110.63V8.64442H114.253V10.4229C115.088 9.36989 116.186 8.41139 118.021 8.41139C119.69 8.41139 120.954 9.13466 121.622 10.39C122.742 9.10388 124.086 8.41139 125.82 8.41139C128.509 8.41139 130.133 10.0008 130.133 13.028V21.1951L126.51 21.1863Z" fill="#414141"/>
<path d="M160.06 21.1859V19.4074C159.224 20.4605 158.151 21.419 156.316 21.419C153.573 21.419 151.974 19.6405 151.974 16.7627V8.64404H155.601V15.6394C155.601 17.3233 156.41 18.1895 157.794 18.1895C159.179 18.1895 160.06 17.3233 160.06 15.6394V8.64404H163.682V21.1859H160.06Z" fill="#414141"/>
<path d="M32.6079 26.2841C32.6079 27.8001 31.9942 29.2539 30.9017 30.3259C29.8093 31.3978 28.3276 32 26.7826 32H5.82524C4.28029 32 2.79862 31.3978 1.70617 30.3259C0.613728 29.2539 0 27.8001 0 26.2841V5.71586C0 4.19992 0.613728 2.74607 1.70617 1.67413C2.79862 0.602203 4.28029 0 5.82524 0H26.7871C28.3321 0 29.8137 0.602203 30.9062 1.67413C31.9986 2.74607 32.6124 4.19992 32.6124 5.71586L32.6079 26.2841Z" fill="#3866AF"/>
<path d="M11.1854 15.8592C11.3768 15.4705 11.6687 15.1377 12.0319 14.8939C12.395 14.6502 12.8169 14.504 13.2556 14.4698H18.0816C18.3917 14.4793 18.7006 14.4275 18.99 14.3176C19.2794 14.2077 19.5433 14.0419 19.7661 13.8299C19.9889 13.618 20.166 13.3644 20.287 13.084C20.4079 12.8036 20.4703 12.5023 20.4703 12.1978C20.4703 11.8933 20.4079 11.592 20.287 11.3116C20.166 11.0312 19.9889 10.7775 19.7661 10.5656C19.5433 10.3537 19.2794 10.1879 18.99 10.0779C18.7006 9.96803 18.3917 9.91627 18.0816 9.92574H15.5117V5.02768H17.8127C20.4699 5.02768 23.3332 5.17937 25.0405 7.08319C26.9494 9.21784 27.0771 12.8606 25.1839 15.7097C23.0487 18.937 19.4415 20.2121 15.9867 20.2824H14.0218L9.87918 20.3506C9.87918 20.3506 8.70742 20.3088 9.34147 19.1722L11.1854 15.8592Z" fill="white"/>
<path d="M15.5706 5.02768H10.1598C10.0612 5.03225 9.96521 5.06 9.87982 5.10859C9.79443 5.15717 9.72219 5.22518 9.66918 5.30688C9.52355 5.65863 9.78792 6.01037 10.1486 6.6567C10.8432 7.91199 10.9821 8.19559 11.5691 9.11452C12.0172 9.68171 12.5392 9.90374 13.4713 9.94771H15.9851V5.02768H15.5706Z" fill="white"/>
<path d="M14.1921 21.0742C13.8717 22.8637 13.549 24.6949 13.2264 26.4866C13.1981 26.62 13.1251 26.7402 13.0192 26.8282C12.9132 26.9163 12.7804 26.967 12.6417 26.9725H7.42807C6.56772 26.9725 6.32575 26.8911 6.17116 26.7526C6.01657 26.6141 6.05241 26.3789 6.19805 26.0272C6.19805 26.0272 7.26675 23.4045 7.87392 22.2547C8.48109 21.1049 9.65286 21.0368 10.3967 21.0368C11.1405 21.0368 14.145 21.072 14.145 21.072L14.1921 21.0742Z" fill="#6DB3D6"/>
</svg>
