<svg width="200" height="153" viewBox="0 0 200 153" fill="none" xmlns="http://www.w3.org/2000/svg">
<path d="M80.1586 31.4964H79.424V11.5465C79.424 10.0302 79.1227 8.52872 78.5374 7.12783C77.952 5.72695 77.0941 4.45408 76.0125 3.38189C74.9309 2.3097 73.6469 1.45919 72.2337 0.878927C70.8206 0.298661 69.306 1.28473e-06 67.7764 0H25.1396C22.0504 -5.83782e-06 19.0878 1.21649 16.9035 3.38186C14.7191 5.54724 13.4919 8.48413 13.4919 11.5464V120.993C13.4919 122.51 13.7932 124.011 14.3786 125.412C14.9639 126.813 15.8219 128.086 16.9034 129.158C17.985 130.23 19.269 131.08 20.6822 131.661C22.0953 132.241 23.61 132.54 25.1395 132.54H67.7763C70.8655 132.54 73.8281 131.323 76.0124 129.158C78.1968 126.992 79.424 124.056 79.424 120.993V45.6971H80.1586V31.4964Z" fill="#3F3D56"/>
<path d="M68.2745 3.17456H62.7018C62.958 3.79883 63.0559 4.47613 62.9866 5.14681C62.9174 5.81749 62.6832 6.46096 62.3047 7.02054C61.9262 7.58011 61.415 8.03861 60.8162 8.35566C60.2173 8.6727 59.5492 8.83855 58.8706 8.8386H34.4126C33.734 8.83855 33.0659 8.6727 32.467 8.35566C31.8682 8.03862 31.357 7.58012 30.9785 7.02054C30.6 6.46097 30.3658 5.8175 30.2965 5.14682C30.2273 4.47614 30.3251 3.79883 30.5814 3.17456H25.3764C24.2327 3.17456 23.1001 3.39839 22.0434 3.83328C20.9867 4.26816 20.0265 4.90558 19.2178 5.70914C18.409 6.5127 17.7674 7.46666 17.3297 8.51657C16.892 9.56647 16.6667 10.6917 16.6667 11.8282V121.505C16.6667 122.641 16.892 123.767 17.3297 124.817C17.7674 125.867 18.409 126.821 19.2177 127.624C20.0265 128.428 20.9867 129.065 22.0434 129.5C23.1001 129.935 24.2326 130.159 25.3764 130.159H68.2745C69.4183 130.159 70.5509 129.935 71.6076 129.5C72.6643 129.065 73.6244 128.428 74.4332 127.624C75.242 126.821 75.8835 125.867 76.3212 124.817C76.7589 123.767 76.9842 122.641 76.9842 121.505V11.8282C76.9842 10.6917 76.7589 9.56647 76.3212 8.51657C75.8835 7.46666 75.242 6.5127 74.4332 5.70914C73.6244 4.90558 72.6643 4.26816 71.6076 3.83328C70.5509 3.39839 69.4183 3.17456 68.2745 3.17456Z" fill="white"/>
<path d="M46.8253 84.9207C58.2217 84.9207 67.4603 75.6822 67.4603 64.2858C67.4603 52.8895 58.2217 43.6509 46.8253 43.6509C35.429 43.6509 26.1904 52.8895 26.1904 64.2858C26.1904 75.6822 35.429 84.9207 46.8253 84.9207Z" fill="#3866B0"/>
<path d="M44.9292 72.2221C44.4762 72.2229 44.0353 72.071 43.6729 71.7894L43.6504 71.7719L38.9186 68.0198C38.6995 67.8457 38.5156 67.6285 38.3774 67.3807C38.2392 67.1328 38.1495 66.8592 38.1133 66.5754C38.0772 66.2917 38.0953 66.0033 38.1666 65.7268C38.238 65.4502 38.3612 65.191 38.5292 64.9638C38.6972 64.7367 38.9067 64.546 39.1458 64.4028C39.3849 64.2596 39.6489 64.1666 39.9226 64.1291C40.1964 64.0916 40.4746 64.1104 40.7414 64.1844C41.0081 64.2583 41.2582 64.386 41.4774 64.5602L44.5422 66.9964L51.7847 57.2023C51.9526 56.9752 52.1621 56.7847 52.4011 56.6415C52.6401 56.4983 52.9039 56.4053 53.1776 56.3679C53.4512 56.3304 53.7293 56.3492 53.996 56.4231C54.2626 56.4971 54.5126 56.6247 54.7317 56.7988L54.7323 56.7993L54.6873 56.864L54.7335 56.7993C55.1754 57.1513 55.4646 57.6708 55.5375 58.2436C55.6103 58.8164 55.461 59.3958 55.1223 59.8546L46.6036 71.3695C46.4065 71.6349 46.1531 71.8495 45.863 71.997C45.573 72.1444 45.2541 72.2205 44.931 72.2196L44.9292 72.2221Z" fill="white"/>
<path d="M170.106 134.514C170.358 134.106 170.654 133.727 170.989 133.385C171.127 133.241 171.273 133.106 171.424 132.974C172.338 132.157 173.452 131.6 174.652 131.359C175.852 131.118 177.094 131.202 178.251 131.602C179.408 132.003 180.438 132.705 181.234 133.638C182.031 134.57 182.566 135.698 182.784 136.907C183.793 133.159 181.165 129.468 178.522 126.633C175.878 123.799 172.856 120.69 172.872 116.806C172.879 114.645 173.932 112.717 175.523 111.288C175.572 111.245 175.621 111.201 175.671 111.16C177.593 109.506 180.066 108.641 182.596 108.738C187.297 108.99 191.401 112.16 194.251 115.921C198.839 121.971 200.849 130.465 197.637 137.352C194.812 143.41 188.787 147.007 182.638 149.899C181.78 150.303 180.923 150.695 180.068 151.074C180.062 151.076 180.056 151.08 180.05 151.081C180.009 151.1 179.968 151.118 179.929 151.136C179.753 151.215 179.576 151.293 179.401 151.37L179.482 151.423L179.735 151.587C179.647 151.534 179.561 151.482 179.473 151.429C179.447 151.413 179.419 151.398 179.393 151.382C176.373 149.563 173.311 147.639 171.225 144.8C169.061 141.853 168.191 137.63 170.106 134.514Z" fill="#F1F1F1"/>
<path d="M190.608 128.113C191.302 129.612 191.761 131.198 191.973 132.822C192.139 134.271 192.077 135.734 191.787 137.165C191.166 140.106 189.81 142.861 187.834 145.2C186.343 146.975 184.622 148.565 182.712 149.931C181.821 150.327 180.933 150.711 180.046 151.084C180.041 151.085 180.034 151.089 180.028 151.091C179.986 151.109 179.943 151.126 179.903 151.145C179.72 151.221 179.537 151.298 179.356 151.374L179.44 151.426L179.702 151.587C179.611 151.535 179.521 151.484 179.43 151.432C179.403 151.416 179.374 151.401 179.348 151.385C180.036 149.096 180.138 146.683 179.643 144.348C179.148 142.014 178.071 139.826 176.503 137.968C174.926 136.134 172.916 134.68 170.635 133.724C170.778 133.583 170.929 133.449 171.085 133.32C171.964 133.703 172.805 134.16 173.599 134.684C176.438 136.548 178.57 139.231 179.679 142.337C180.67 145.154 180.793 148.181 180.036 151.062C180.193 150.964 180.351 150.864 180.504 150.765C183.421 148.896 186.109 146.652 188.134 143.9C189.88 141.574 190.998 138.876 191.388 136.043C191.776 132.949 190.961 129.906 189.507 127.145C187.901 124.191 185.878 121.46 183.493 119.026C181.097 116.526 178.389 114.314 175.428 112.439C175.361 112.396 175.314 112.33 175.297 112.256C175.28 112.181 175.293 112.103 175.335 112.038C175.367 111.978 175.422 111.933 175.489 111.912C175.522 111.903 175.558 111.903 175.592 111.909C175.626 111.916 175.659 111.93 175.686 111.95C176.052 112.181 176.414 112.415 176.772 112.656C179.754 114.662 182.462 117.012 184.834 119.652C187.127 122.197 189.213 125.025 190.608 128.113Z" fill="white"/>
<path d="M128.968 9.52386C131.379 9.52386 133.333 7.56955 133.333 5.15878C133.333 2.74801 131.379 0.793701 128.968 0.793701C126.558 0.793701 124.603 2.74801 124.603 5.15878C124.603 7.56955 126.558 9.52386 128.968 9.52386Z" fill="#F1F1F1"/>
<path d="M183.333 68.254C184.648 68.254 185.714 67.0104 185.714 65.4763C185.714 63.9421 184.648 62.6985 183.333 62.6985C182.018 62.6985 180.952 63.9421 180.952 65.4763C180.952 67.0104 182.018 68.254 183.333 68.254Z" fill="#F1F1F1"/>
<path d="M105.159 75.3969C106.693 75.3969 107.936 74.3309 107.936 73.016C107.936 71.701 106.693 70.635 105.159 70.635C103.625 70.635 102.381 71.701 102.381 73.016C102.381 74.3309 103.625 75.3969 105.159 75.3969Z" fill="#F1F1F1"/>
<path d="M106.594 152.381H199.755C199.82 152.381 199.882 152.339 199.928 152.265C199.974 152.19 200 152.089 200 151.984C200 151.879 199.974 151.778 199.928 151.704C199.882 151.629 199.82 151.587 199.755 151.587H106.594C106.529 151.587 106.467 151.629 106.421 151.704C106.375 151.778 106.349 151.879 106.349 151.984C106.349 152.089 106.375 152.19 106.421 152.265C106.467 152.339 106.529 152.381 106.594 152.381Z" fill="#CBCBCB"/>
<path d="M189.646 23.8136C189.774 22.9685 189.565 22.1091 189.059 21.3983C188.553 20.6874 187.786 20.1745 186.903 19.9567C186.019 19.739 185.081 19.8314 184.266 20.2166C183.45 20.6018 182.815 21.253 182.479 22.0467L174.603 30.4798L176.914 36.508L184.834 26.6543C185.351 26.8089 185.898 26.8558 186.437 26.7917C186.975 26.7276 187.492 26.554 187.95 26.2832C188.409 26.0123 188.799 25.6509 189.092 25.2242C189.385 24.7975 189.574 24.316 189.646 23.8136Z" fill="#FFB7B7"/>
<path d="M158.195 57.1428L183.333 30.7083L179.942 25.3967L148.413 51.6707L158.195 57.1428Z" fill="#3F3D56"/>
<path d="M152.381 41.2699C157.203 41.2699 161.111 37.3613 161.111 32.5397C161.111 27.7182 157.203 23.8096 152.381 23.8096C147.56 23.8096 143.651 27.7182 143.651 32.5397C143.651 37.3613 147.56 41.2699 152.381 41.2699Z" fill="#2F2E41"/>
<path d="M153.175 27.3438C155.036 25.4164 157.289 23.929 159.775 22.9865C161.37 22.383 163.107 22.0102 164.775 22.3529C166.443 22.6956 168.02 23.8736 168.485 25.5444C168.866 26.9107 168.473 28.3817 167.882 29.6678C167.292 30.9539 166.504 32.1465 166.026 33.4806C165.539 34.8419 165.392 36.3058 165.6 37.7395C165.807 39.1733 166.362 40.5314 167.214 41.6906C168.066 42.8499 169.188 43.7735 170.479 44.3777C171.769 44.9819 173.187 45.2475 174.603 45.1504C172.964 45.3747 171.454 46.161 169.852 46.5795C168.25 46.9981 166.359 46.9697 165.169 45.798C163.909 44.5584 163.884 42.5428 163.945 40.7578C164.035 38.1042 164.126 35.4507 164.216 32.7972C164.263 31.4439 164.302 30.0473 163.824 28.7842C163.346 27.5212 162.21 26.4151 160.884 26.4266C159.878 26.4353 158.989 27.057 158.183 27.6701C157.376 28.2832 156.523 28.9373 155.522 29.0285C154.521 29.1197 153.378 28.3632 153.453 27.3398L153.175 27.3438Z" fill="#2F2E41"/>
<path d="M118.826 91.9282C117.981 92.1711 117.079 92.0848 116.292 91.6857C115.505 91.2866 114.886 90.6025 114.553 89.7628C114.221 88.9232 114.197 87.9865 114.487 87.1302C114.777 86.2738 115.361 85.5574 116.127 85.1166L123.729 76.1904L130.159 77.6282L121.116 86.7958C121.338 87.2832 121.454 87.8152 121.456 88.3541C121.459 88.8931 121.347 89.426 121.128 89.9154C120.91 90.4047 120.591 90.8385 120.193 91.1863C119.795 91.534 119.328 91.7873 118.826 91.9282Z" fill="#FFB7B7"/>
<path d="M143.651 60.3575L124.795 84.127L119.048 81.477L141.21 46.8254L143.651 60.3575Z" fill="#3F3D56"/>
<path d="M128.572 132.609L124.603 132.54L125.081 147.619H128.571L128.572 132.609Z" fill="#FFB7B7"/>
<path d="M130.159 146.826L121.918 146.825H121.918C120.525 146.826 119.19 147.311 118.205 148.176C117.22 149.041 116.667 150.214 116.667 151.437V151.587L130.159 151.587L130.159 146.826Z" fill="#2F2E41"/>
<path d="M159.007 128.572L153.968 131.747L164.046 143.651L167.46 141.499L159.007 128.572Z" fill="#FFB7B7"/>
<path d="M167.19 139.683L160.915 143.856L160.915 143.856C159.854 144.562 159.108 145.675 158.839 146.951C158.571 148.226 158.803 149.56 159.483 150.659L159.567 150.794L169.841 143.96L167.19 139.683Z" fill="#2F2E41"/>
<path d="M160.858 81.4549C160.858 81.4549 149.895 44.9555 146.372 44.4622C142.848 43.969 137.172 53.8276 137.172 53.8276C129.812 63.2407 122.222 93.732 122.222 93.732C122.222 93.732 134.874 94.5256 144.123 99.4579C153.371 104.39 164.286 99.2083 164.286 99.2083L160.858 81.4549Z" fill="#3F3D56"/>
<path opacity="0.1" d="M160.858 81.4548C160.858 81.4548 149.895 44.9553 146.372 44.4621C142.848 43.9688 138.613 53.9275 138.613 53.9275C134.946 69.1226 122.222 93.732 122.222 93.732C122.222 93.732 134.874 94.5256 144.123 99.4579C153.371 104.39 164.286 99.2082 164.286 99.2082L160.858 81.4548Z" fill="black"/>
<path d="M151.466 70.7799V88.9878L153.604 115.363L164.286 135.315L159.188 138.964L144.622 119.986L138.861 101.142L129.813 142.857L123.016 142.37L127.737 84.5336L136.695 68.2539L151.466 70.7799Z" fill="#2F2E41"/>
<path d="M140.634 52.8187C137.236 56.267 140.391 59.9616 140.391 59.9616L136.508 68.8286L151.799 73.0158L157.143 48.7847L153.502 44.8438C146.22 44.5975 146.217 44.4443 146.217 44.4443C144.941 45.7113 140.634 52.8187 140.634 52.8187Z" fill="#3866B0"/>
<path d="M157.965 46.5209C157.258 46.0052 156.454 45.6333 155.601 45.4266C154.747 45.22 153.86 45.1827 152.992 45.317C152.123 45.4513 151.29 45.7544 150.541 46.2089C149.792 46.6633 149.142 47.2601 148.628 47.9645C144.713 53.3485 141.094 62.0422 146.081 72.8848C154.089 90.2947 161.058 99.2072 163.891 99.2063C164.015 99.2073 164.138 99.1882 164.255 99.1497C165.999 98.5654 168.52 95.6507 168.977 93.0821C169.14 92.1628 169.101 90.8822 167.988 90.0029C164.791 87.4769 159.051 79.6117 157.26 69.2594C156.271 63.5391 158.19 58.3285 159.974 54.9647C160.727 53.5729 160.948 51.9594 160.595 50.4201C160.242 48.8807 159.339 47.5186 158.051 46.5835L157.965 46.5209Z" fill="#3F3D56"/>
<path d="M152.891 40.2995C156.037 38.5794 157.194 34.634 155.474 31.4872C153.753 28.3405 149.808 27.184 146.661 28.9042C143.515 30.6243 142.358 34.5697 144.078 37.7165C145.798 40.8632 149.744 42.0197 152.891 40.2995Z" fill="#FFB7B7"/>
<path d="M140.476 34.127H150.182L150.282 32.7799L150.779 34.127H152.274L152.471 31.4572L153.457 34.127H156.349V33.9947C156.347 32.136 155.582 30.3541 154.223 29.0398C152.863 27.7255 151.02 26.9862 149.097 26.9841H147.728C145.806 26.9862 143.962 27.7255 142.603 29.0398C141.243 30.3541 140.478 32.136 140.476 33.9947V34.127Z" fill="#2F2E41"/>
<path d="M154.528 38.8139L158.73 37.5131V27.7778H150.794L150.99 27.965C153.724 30.5699 156.764 39.8119 154.528 38.8139Z" fill="#2F2E41"/>
</svg>
